<svg xmlns="http://www.w3.org/2000/svg" xmlns:xlink="http://www.w3.org/1999/xlink" width="500" zoomAndPan="magnify" viewBox="0 0 375 374.999991" height="500" preserveAspectRatio="xMidYMid meet" version="1.0"><defs><clipPath id="1b9215804f"><path d="M 95 62 L 345.3125 62 L 345.3125 268 L 95 268 Z M 95 62 " clip-rule="nonzero"/></clipPath></defs><path fill="#0f7a7a" d="M 276.054688 190.039062 C 273.894531 190.039062 273.191406 190.601562 273.078125 192.816406 C 272.574219 202.855469 270.835938 212.789062 266.992188 222.011719 C 250.304688 261.808594 221.078125 285.480469 177.605469 290.082031 C 158.171875 292.074219 139.238281 289.550781 121.484375 280.96875 C 76.917969 259.402344 49.546875 208.519531 67.582031 152.375 C 84.214844 100.738281 133.210938 70.589844 185.183594 79.003906 C 205.402344 82.34375 222.878906 91.148438 237.742188 105.3125 C 241.976562 97.710938 248.679688 92.746094 255.859375 88.007812 C 234.882812 67.222656 209.890625 54.347656 180.046875 51.796875 C 137.585938 48.152344 101.628906 62.539062 72.546875 93.363281 C 41.300781 126.570312 29.632812 166.230469 36.644531 211.15625 C 40.457031 235.785156 51.535156 257.128906 68.167969 275.5 C 101.515625 312.4375 142.941406 326.878906 191.941406 318.296875 C 225.007812 312.550781 250.726562 294.457031 271.003906 268.292969 C 288.339844 246.078125 297.339844 220.78125 297.566406 192.511719 C 297.566406 190.210938 296.976562 189.621094 294.734375 189.675781 C 288.503906 189.953125 282.25 190.039062 276.054688 190.039062 Z M 276.054688 190.039062 " fill-opacity="1" fill-rule="nonzero"/><path fill="#0f7a7a" d="M 200.300781 159.214844 C 201.027344 158.207031 201.617188 157.140625 202.375 156.1875 C 214.515625 141.179688 227 126.570312 240.828125 113.082031 C 241.164062 112.6875 241.527344 112.351562 241.890625 112.011719 C 242.707031 111.226562 243.265625 111.648438 243.882812 112.296875 C 244.417969 112.964844 244.472656 113.527344 243.828125 114.0625 C 243.042969 114.675781 242.3125 115.40625 241.527344 115.996094 C 233.363281 122.53125 227.308594 131.085938 220.351562 138.742188 C 213.875 145.75 207.253906 152.570312 200.664062 159.523438 C 200.550781 159.414062 200.441406 159.300781 200.300781 159.214844 Z M 200.300781 159.214844 " fill-opacity="1" fill-rule="nonzero"/><path fill="#0f7a7a" d="M 265.085938 95.550781 C 264.554688 96.027344 263.878906 96.390625 263.375 95.550781 C 263.011719 94.820312 263.683594 94.511719 264.105469 94.203125 C 268.367188 91.289062 272.632812 88.339844 276.894531 85.425781 C 277.0625 85.589844 277.230469 85.675781 277.316406 85.871094 C 273.246094 89.125 269.179688 92.324219 265.085938 95.550781 Z M 265.085938 95.550781 " fill-opacity="1" fill-rule="nonzero"/><g clip-path="url(#1b9215804f)"><path fill="#2ba26f" d="M 305.082031 77.515625 C 317.140625 67.558594 330.6875 64.839844 345.414062 66.128906 C 341.90625 63.6875 337.28125 65.820312 333.410156 62.597656 C 322.890625 64.082031 312.597656 66.242188 302.921875 70.839844 C 302.109375 71.203125 301.324219 71.9375 300.113281 71.597656 C 300.898438 70.925781 301.546875 70.308594 302.863281 69.214844 C 301.714844 69.550781 301.324219 69.636719 300.984375 69.832031 C 277.851562 81.949219 256.445312 93.136719 236.5625 110.191406 C 233.617188 112.71875 234.765625 113.445312 238.273438 111.171875 C 232.019531 117.230469 225.851562 123.34375 220.15625 129.992188 C 202.683594 150.324219 185.796875 171.082031 171.914062 194.132812 C 168.941406 199.128906 165.183594 203.585938 161.453125 208.550781 C 160.246094 206.082031 159.261719 203.949219 158.199219 201.875 C 157.328125 200.191406 157.105469 198.453125 157.863281 196.742188 C 158.816406 194.527344 158.367188 192.535156 157.273438 190.488281 C 154.105469 184.683594 162.265625 207.121094 158.199219 201.875 C 154.886719 197.53125 139.351562 165.554688 136.632812 160.84375 C 134.445312 156.917969 131.890625 154.109375 127.292969 152.425781 C 116.941406 148.8125 102.414062 150.804688 96.550781 164.714844 C 95.039062 168.246094 95.765625 171.53125 98.039062 174.113281 C 117.222656 195.652344 131.105469 220.304688 141.734375 246.949219 C 143.109375 250.3125 144.59375 253.707031 146.140625 256.960938 C 147.039062 258.785156 147.964844 260.777344 151.75 259.515625 C 153.238281 262.90625 156.65625 264.171875 159.378906 266.246094 C 160.109375 266.808594 160.921875 267.140625 161.875 267.03125 C 165.265625 266.636719 168.773438 266.46875 172.140625 265.765625 C 175.953125 264.980469 178.957031 262.933594 180.273438 258.839844 C 181.589844 254.855469 183.160156 250.816406 185.042969 247.0625 C 190.203125 236.515625 193.652344 225.210938 200.1875 215.253906 C 208.179688 203.109375 218.222656 192.421875 225.289062 179.550781 C 229.382812 172.0625 235.246094 165.496094 240.941406 159.074219 C 250.78125 147.96875 261.078125 137.3125 271.679688 126.90625 C 272.183594 126.402344 272.632812 125.867188 273.082031 125.335938 C 263.824219 131.308594 254.316406 136.640625 246.855469 144.800781 C 256.757812 129.265625 271.371094 118.15625 284.1875 105.339844 C 281.71875 105.117188 280.511719 107.46875 278.269531 107.894531 C 278.941406 106.125 280.148438 105.0625 281.242188 103.96875 C 285.535156 99.789062 290.21875 96.144531 295.097656 92.777344 C 296.722656 91.625 297.171875 90.558594 295.742188 89.070312 C 294.425781 87.613281 294.847656 86.6875 296.414062 85.875 C 299.5 84.164062 302.613281 82.339844 305.699219 80.601562 C 310.722656 77.910156 315.996094 75.582031 320.757812 72.355469 C 322.277344 72.242188 323.285156 71.148438 324.464844 70.277344 C 322.835938 70.363281 321.433594 70.980469 320.144531 71.761719 C 315.320312 73.648438 310.464844 75.46875 305.082031 77.515625 Z M 206.441406 203.390625 C 217.097656 183.785156 228.207031 164.546875 244.753906 149.007812 C 230.449219 166.117188 218.160156 184.574219 206.441406 203.390625 Z M 206.441406 203.390625 " fill-opacity="1" fill-rule="nonzero"/></g></svg>